<svg xmlns="http://www.w3.org/2000/svg" xmlns:xlink="http://www.w3.org/1999/xlink" width="500" zoomAndPan="magnify" viewBox="0 0 375 374.999991" height="500" preserveAspectRatio="xMidYMid meet" version="1.0"><defs><clipPath id="c7e0a8bdc0"><path d="M 30 0 L 345 0 C 361.570312 0 375 13.429688 375 30 L 375 345 C 375 361.570312 361.570312 375 345 375 L 30 375 C 13.429688 375 0 361.570312 0 345 L 0 30 C 0 13.429688 13.429688 0 30 0 Z M 30 0 " clip-rule="nonzero"/></clipPath><clipPath id="a7cfb9fa36"><path d="M 0 0 L 375 0 L 375 375 L 0 375 Z M 0 0 " clip-rule="nonzero"/></clipPath><clipPath id="8912ea8880"><path d="M 30 0 L 345 0 C 361.570312 0 375 13.429688 375 30 L 375 345 C 375 361.570312 361.570312 375 345 375 L 30 375 C 13.429688 375 0 361.570312 0 345 L 0 30 C 0 13.429688 13.429688 0 30 0 Z M 30 0 " clip-rule="nonzero"/></clipPath><clipPath id="d1e7cc5c0e"><rect x="0" width="375" y="0" height="375"/></clipPath><clipPath id="9fa3665dad"><path d="M 13.246094 10.761719 L 181.707031 10.761719 L 181.707031 183.828125 L 13.246094 183.828125 Z M 13.246094 10.761719 " clip-rule="nonzero"/></clipPath><clipPath id="4de9dcb774"><path d="M 97.476562 10.761719 C 50.957031 10.761719 13.246094 49.398438 13.246094 97.0625 C 13.246094 144.722656 50.957031 183.359375 97.476562 183.359375 C 143.996094 183.359375 181.707031 144.722656 181.707031 97.0625 C 181.707031 49.398438 143.996094 10.761719 97.476562 10.761719 Z M 97.476562 10.761719 " clip-rule="nonzero"/></clipPath><clipPath id="a6701115a5"><path d="M 0.246094 0.761719 L 168.707031 0.761719 L 168.707031 173.601562 L 0.246094 173.601562 Z M 0.246094 0.761719 " clip-rule="nonzero"/></clipPath><clipPath id="ee96fce671"><path d="M 84.476562 0.761719 C 37.957031 0.761719 0.246094 39.398438 0.246094 87.0625 C 0.246094 134.722656 37.957031 173.359375 84.476562 173.359375 C 130.996094 173.359375 168.707031 134.722656 168.707031 87.0625 C 168.707031 39.398438 130.996094 0.761719 84.476562 0.761719 Z M 84.476562 0.761719 " clip-rule="nonzero"/></clipPath><clipPath id="84ad5a996c"><rect x="0" width="169" y="0" height="174"/></clipPath><clipPath id="56f21a1b0a"><path d="M 194.945312 10.761719 L 363.40625 10.761719 L 363.40625 183.828125 L 194.945312 183.828125 Z M 194.945312 10.761719 " clip-rule="nonzero"/></clipPath><clipPath id="6c5d862594"><path d="M 279.175781 10.761719 C 232.65625 10.761719 194.945312 49.398438 194.945312 97.0625 C 194.945312 144.722656 232.65625 183.359375 279.175781 183.359375 C 325.695312 183.359375 363.40625 144.722656 363.40625 97.0625 C 363.40625 49.398438 325.695312 10.761719 279.175781 10.761719 Z M 279.175781 10.761719 " clip-rule="nonzero"/></clipPath><clipPath id="8b696b275e"><path d="M 0.945312 0.761719 L 169.40625 0.761719 L 169.40625 173.601562 L 0.945312 173.601562 Z M 0.945312 0.761719 " clip-rule="nonzero"/></clipPath><clipPath id="938b7edb20"><path d="M 85.175781 0.761719 C 38.65625 0.761719 0.945312 39.398438 0.945312 87.0625 C 0.945312 134.722656 38.65625 173.359375 85.175781 173.359375 C 131.695312 173.359375 169.40625 134.722656 169.40625 87.0625 C 169.40625 39.398438 131.695312 0.761719 85.175781 0.761719 Z M 85.175781 0.761719 " clip-rule="nonzero"/></clipPath><clipPath id="9baef811cb"><rect x="0" width="170" y="0" height="174"/></clipPath><clipPath id="eacf4e316a"><path d="M 194.945312 194.121094 L 363.40625 194.121094 L 363.40625 367 L 194.945312 367 Z M 194.945312 194.121094 " clip-rule="nonzero"/></clipPath><clipPath id="73586592a6"><path d="M 279.175781 194.121094 C 232.65625 194.121094 194.945312 232.757812 194.945312 280.417969 C 194.945312 328.082031 232.65625 366.71875 279.175781 366.71875 C 325.695312 366.71875 363.40625 328.082031 363.40625 280.417969 C 363.40625 232.757812 325.695312 194.121094 279.175781 194.121094 Z M 279.175781 194.121094 " clip-rule="nonzero"/></clipPath><clipPath id="2958eef2e8"><path d="M 0.945312 0.121094 L 169.40625 0.121094 L 169.40625 172.71875 L 0.945312 172.71875 Z M 0.945312 0.121094 " clip-rule="nonzero"/></clipPath><clipPath id="cde5360250"><path d="M 85.175781 0.121094 C 38.65625 0.121094 0.945312 38.757812 0.945312 86.417969 C 0.945312 134.082031 38.65625 172.71875 85.175781 172.71875 C 131.695312 172.71875 169.40625 134.082031 169.40625 86.417969 C 169.40625 38.757812 131.695312 0.121094 85.175781 0.121094 Z M 85.175781 0.121094 " clip-rule="nonzero"/></clipPath><clipPath id="ffb92ef6f9"><rect x="0" width="170" y="0" height="173"/></clipPath><clipPath id="eb047d87db"><path d="M 13.246094 194.121094 L 181.707031 194.121094 L 181.707031 367 L 13.246094 367 Z M 13.246094 194.121094 " clip-rule="nonzero"/></clipPath><clipPath id="f461a817a4"><path d="M 97.476562 194.121094 C 50.957031 194.121094 13.246094 232.757812 13.246094 280.417969 C 13.246094 328.082031 50.957031 366.71875 97.476562 366.71875 C 143.996094 366.71875 181.707031 328.082031 181.707031 280.417969 C 181.707031 232.757812 143.996094 194.121094 97.476562 194.121094 Z M 97.476562 194.121094 " clip-rule="nonzero"/></clipPath><clipPath id="fb0e8e0db8"><path d="M 0.246094 0.121094 L 168.707031 0.121094 L 168.707031 172.71875 L 0.246094 172.71875 Z M 0.246094 0.121094 " clip-rule="nonzero"/></clipPath><clipPath id="52d718b2af"><path d="M 84.476562 0.121094 C 37.957031 0.121094 0.246094 38.757812 0.246094 86.417969 C 0.246094 134.082031 37.957031 172.71875 84.476562 172.71875 C 130.996094 172.71875 168.707031 134.082031 168.707031 86.417969 C 168.707031 38.757812 130.996094 0.121094 84.476562 0.121094 Z M 84.476562 0.121094 " clip-rule="nonzero"/></clipPath><clipPath id="63c78373af"><rect x="0" width="169" y="0" height="173"/></clipPath></defs><g clip-path="url(#c7e0a8bdc0)"><g transform="matrix(1, 0, 0, 1, 0, 0)"><g clip-path="url(#d1e7cc5c0e)"><g clip-path="url(#a7cfb9fa36)"><g clip-path="url(#8912ea8880)"><rect x="-82.5" width="540" fill="#000000" height="539.999987" y="-82.499998" fill-opacity="1"/></g></g></g></g></g><g clip-path="url(#9fa3665dad)"><g clip-path="url(#4de9dcb774)"><g transform="matrix(1, 0, 0, 1, 13, 10)"><g clip-path="url(#84ad5a996c)"><g clip-path="url(#a6701115a5)"><g clip-path="url(#ee96fce671)"><path fill="#ff3131" d="M 0.246094 0.761719 L 168.707031 0.761719 L 168.707031 173.171875 L 0.246094 173.171875 Z M 0.246094 0.761719 " fill-opacity="1" fill-rule="nonzero"/></g></g></g></g></g></g><g clip-path="url(#56f21a1b0a)"><g clip-path="url(#6c5d862594)"><g transform="matrix(1, 0, 0, 1, 194, 10)"><g clip-path="url(#9baef811cb)"><g clip-path="url(#8b696b275e)"><g clip-path="url(#938b7edb20)"><path fill="#ffffff" d="M 0.945312 0.761719 L 169.40625 0.761719 L 169.40625 173.171875 L 0.945312 173.171875 Z M 0.945312 0.761719 " fill-opacity="1" fill-rule="nonzero"/></g></g></g></g></g></g><g clip-path="url(#eacf4e316a)"><g clip-path="url(#73586592a6)"><g transform="matrix(1, 0, 0, 1, 194, 194)"><g clip-path="url(#ffb92ef6f9)"><g clip-path="url(#2958eef2e8)"><g clip-path="url(#cde5360250)"><path fill="#ffffff" d="M 0.945312 0.121094 L 169.40625 0.121094 L 169.40625 172.527344 L 0.945312 172.527344 Z M 0.945312 0.121094 " fill-opacity="1" fill-rule="nonzero"/></g></g></g></g></g></g><g clip-path="url(#eb047d87db)"><g clip-path="url(#f461a817a4)"><g transform="matrix(1, 0, 0, 1, 13, 194)"><g clip-path="url(#63c78373af)"><g clip-path="url(#fb0e8e0db8)"><g clip-path="url(#52d718b2af)"><path fill="#ffffff" d="M 0.246094 0.121094 L 168.707031 0.121094 L 168.707031 172.527344 L 0.246094 172.527344 Z M 0.246094 0.121094 " fill-opacity="1" fill-rule="nonzero"/></g></g></g></g></g></g></svg>