<svg xmlns="http://www.w3.org/2000/svg" xmlns:xlink="http://www.w3.org/1999/xlink" width="500" zoomAndPan="magnify" viewBox="0 0 375 374.999991" height="500" preserveAspectRatio="xMidYMid meet" version="1.0"><defs><clipPath id="8d42256edd"><path d="M 75 0 L 300 0 C 341.421875 0 375 33.578125 375 75 L 375 300 C 375 341.421875 341.421875 375 300 375 L 75 375 C 33.578125 375 0 341.421875 0 300 L 0 75 C 0 33.578125 33.578125 0 75 0 Z M 75 0 " clip-rule="nonzero"/></clipPath><clipPath id="3a73b58a5b"><path d="M 0 0 L 375 0 L 375 375 L 0 375 Z M 0 0 " clip-rule="nonzero"/></clipPath><clipPath id="654f363198"><path d="M 75 0 L 300 0 C 341.421875 0 375 33.578125 375 75 L 375 300 C 375 341.421875 341.421875 375 300 375 L 75 375 C 33.578125 375 0 341.421875 0 300 L 0 75 C 0 33.578125 33.578125 0 75 0 Z M 75 0 " clip-rule="nonzero"/></clipPath><clipPath id="1a5a4ac846"><rect x="0" width="375" y="0" height="375"/></clipPath><clipPath id="e2f1704b6c"><path d="M 31.707031 29.222656 L 173.675781 29.222656 L 173.675781 172.855469 L 31.707031 172.855469 Z M 31.707031 29.222656 " clip-rule="nonzero"/></clipPath><clipPath id="810a8671ca"><path d="M 102.691406 29.222656 C 63.488281 29.222656 31.707031 61.375 31.707031 101.035156 C 31.707031 140.695312 63.488281 172.847656 102.691406 172.847656 C 141.894531 172.847656 173.675781 140.695312 173.675781 101.035156 C 173.675781 61.375 141.894531 29.222656 102.691406 29.222656 Z M 102.691406 29.222656 " clip-rule="nonzero"/></clipPath><clipPath id="732c2d078d"><path d="M 0.707031 0.222656 L 142.675781 0.222656 L 142.675781 143.855469 L 0.707031 143.855469 Z M 0.707031 0.222656 " clip-rule="nonzero"/></clipPath><clipPath id="5d3e4429e0"><path d="M 71.691406 0.222656 C 32.488281 0.222656 0.707031 32.375 0.707031 72.035156 C 0.707031 111.695312 32.488281 143.847656 71.691406 143.847656 C 110.894531 143.847656 142.675781 111.695312 142.675781 72.035156 C 142.675781 32.375 110.894531 0.222656 71.691406 0.222656 Z M 71.691406 0.222656 " clip-rule="nonzero"/></clipPath><clipPath id="7ed20dc1cd"><rect x="0" width="143" y="0" height="144"/></clipPath><clipPath id="1a8196ccd6"><path d="M 201.324219 29.222656 L 343.292969 29.222656 L 343.292969 172.855469 L 201.324219 172.855469 Z M 201.324219 29.222656 " clip-rule="nonzero"/></clipPath><clipPath id="5cb377fba1"><path d="M 272.308594 29.222656 C 233.105469 29.222656 201.324219 61.375 201.324219 101.035156 C 201.324219 140.695312 233.105469 172.847656 272.308594 172.847656 C 311.511719 172.847656 343.292969 140.695312 343.292969 101.035156 C 343.292969 61.375 311.511719 29.222656 272.308594 29.222656 Z M 272.308594 29.222656 " clip-rule="nonzero"/></clipPath><clipPath id="ce12fc448d"><path d="M 0.324219 0.222656 L 142.292969 0.222656 L 142.292969 143.855469 L 0.324219 143.855469 Z M 0.324219 0.222656 " clip-rule="nonzero"/></clipPath><clipPath id="aeb9f9e899"><path d="M 71.308594 0.222656 C 32.105469 0.222656 0.324219 32.375 0.324219 72.035156 C 0.324219 111.695312 32.105469 143.847656 71.308594 143.847656 C 110.511719 143.847656 142.292969 111.695312 142.292969 72.035156 C 142.292969 32.375 110.511719 0.222656 71.308594 0.222656 Z M 71.308594 0.222656 " clip-rule="nonzero"/></clipPath><clipPath id="27c465d8b6"><rect x="0" width="143" y="0" height="144"/></clipPath><clipPath id="ad12aab9d1"><path d="M 201.324219 202.980469 L 343.292969 202.980469 L 343.292969 346.613281 L 201.324219 346.613281 Z M 201.324219 202.980469 " clip-rule="nonzero"/></clipPath><clipPath id="26e8193fe8"><path d="M 272.308594 202.980469 C 233.105469 202.980469 201.324219 235.132812 201.324219 274.792969 C 201.324219 314.453125 233.105469 346.605469 272.308594 346.605469 C 311.511719 346.605469 343.292969 314.453125 343.292969 274.792969 C 343.292969 235.132812 311.511719 202.980469 272.308594 202.980469 Z M 272.308594 202.980469 " clip-rule="nonzero"/></clipPath><clipPath id="d7bc3ce7d7"><path d="M 0.324219 0.980469 L 142.292969 0.980469 L 142.292969 144.613281 L 0.324219 144.613281 Z M 0.324219 0.980469 " clip-rule="nonzero"/></clipPath><clipPath id="bc52459f16"><path d="M 71.308594 0.980469 C 32.105469 0.980469 0.324219 33.132812 0.324219 72.792969 C 0.324219 112.453125 32.105469 144.605469 71.308594 144.605469 C 110.511719 144.605469 142.292969 112.453125 142.292969 72.792969 C 142.292969 33.132812 110.511719 0.980469 71.308594 0.980469 Z M 71.308594 0.980469 " clip-rule="nonzero"/></clipPath><clipPath id="3243784e13"><rect x="0" width="143" y="0" height="145"/></clipPath><clipPath id="ee3264cef0"><path d="M 31.707031 202.980469 L 173.675781 202.980469 L 173.675781 346.613281 L 31.707031 346.613281 Z M 31.707031 202.980469 " clip-rule="nonzero"/></clipPath><clipPath id="8fc3a70d6f"><path d="M 102.691406 202.980469 C 63.488281 202.980469 31.707031 235.132812 31.707031 274.792969 C 31.707031 314.453125 63.488281 346.605469 102.691406 346.605469 C 141.894531 346.605469 173.675781 314.453125 173.675781 274.792969 C 173.675781 235.132812 141.894531 202.980469 102.691406 202.980469 Z M 102.691406 202.980469 " clip-rule="nonzero"/></clipPath><clipPath id="275517c36b"><path d="M 0.707031 0.980469 L 142.675781 0.980469 L 142.675781 144.613281 L 0.707031 144.613281 Z M 0.707031 0.980469 " clip-rule="nonzero"/></clipPath><clipPath id="2b5badbfcf"><path d="M 71.691406 0.980469 C 32.488281 0.980469 0.707031 33.132812 0.707031 72.792969 C 0.707031 112.453125 32.488281 144.605469 71.691406 144.605469 C 110.894531 144.605469 142.675781 112.453125 142.675781 72.792969 C 142.675781 33.132812 110.894531 0.980469 71.691406 0.980469 Z M 71.691406 0.980469 " clip-rule="nonzero"/></clipPath><clipPath id="92d8927a65"><rect x="0" width="143" y="0" height="145"/></clipPath></defs><g clip-path="url(#8d42256edd)"><g transform="matrix(1, 0, 0, 1, 0, 0)"><g clip-path="url(#1a5a4ac846)"><g clip-path="url(#3a73b58a5b)"><g clip-path="url(#654f363198)"><rect x="-82.5" width="540" fill="#000000" height="539.999987" y="-82.499998" fill-opacity="1"/></g></g></g></g></g><g clip-path="url(#e2f1704b6c)"><g clip-path="url(#810a8671ca)"><g transform="matrix(1, 0, 0, 1, 31, 29)"><g clip-path="url(#7ed20dc1cd)"><g clip-path="url(#732c2d078d)"><g clip-path="url(#5d3e4429e0)"><path fill="#fd4747" d="M 0.707031 0.222656 L 142.675781 0.222656 L 142.675781 143.855469 L 0.707031 143.855469 Z M 0.707031 0.222656 " fill-opacity="1" fill-rule="nonzero"/></g></g></g></g></g></g><g clip-path="url(#1a8196ccd6)"><g clip-path="url(#5cb377fba1)"><g transform="matrix(1, 0, 0, 1, 201, 29)"><g clip-path="url(#27c465d8b6)"><g clip-path="url(#ce12fc448d)"><g clip-path="url(#aeb9f9e899)"><path fill="#ffffff" d="M 0.324219 0.222656 L 142.292969 0.222656 L 142.292969 143.855469 L 0.324219 143.855469 Z M 0.324219 0.222656 " fill-opacity="1" fill-rule="nonzero"/></g></g></g></g></g></g><g clip-path="url(#ad12aab9d1)"><g clip-path="url(#26e8193fe8)"><g transform="matrix(1, 0, 0, 1, 201, 202)"><g clip-path="url(#3243784e13)"><g clip-path="url(#d7bc3ce7d7)"><g clip-path="url(#bc52459f16)"><path fill="#ffffff" d="M 0.324219 0.980469 L 142.292969 0.980469 L 142.292969 144.613281 L 0.324219 144.613281 Z M 0.324219 0.980469 " fill-opacity="1" fill-rule="nonzero"/></g></g></g></g></g></g><g clip-path="url(#ee3264cef0)"><g clip-path="url(#8fc3a70d6f)"><g transform="matrix(1, 0, 0, 1, 31, 202)"><g clip-path="url(#92d8927a65)"><g clip-path="url(#275517c36b)"><g clip-path="url(#2b5badbfcf)"><path fill="#ffffff" d="M 0.707031 0.980469 L 142.675781 0.980469 L 142.675781 144.613281 L 0.707031 144.613281 Z M 0.707031 0.980469 " fill-opacity="1" fill-rule="nonzero"/></g></g></g></g></g></g></svg>