<svg xmlns="http://www.w3.org/2000/svg" xmlns:xlink="http://www.w3.org/1999/xlink" width="2000" zoomAndPan="magnify" viewBox="0 0 1500 1499.999933" height="2000" preserveAspectRatio="xMidYMid meet" version="1.0"><defs><clipPath id="3361b749da"><path d="M 29.46875 21.191406 L 1483 21.191406 L 1483 1475 L 29.46875 1475 Z M 29.46875 21.191406 " clip-rule="nonzero"/></clipPath><clipPath id="e51187dfec"><path d="M 385.925781 356.125 L 509.769531 356.125 L 509.769531 479.96875 L 385.925781 479.96875 Z M 385.925781 356.125 " clip-rule="nonzero"/></clipPath><clipPath id="ef7537d53d"><path d="M 447.847656 356.125 C 413.648438 356.125 385.925781 383.847656 385.925781 418.046875 C 385.925781 452.242188 413.648438 479.96875 447.847656 479.96875 C 482.046875 479.96875 509.769531 452.242188 509.769531 418.046875 C 509.769531 383.847656 482.046875 356.125 447.847656 356.125 Z M 447.847656 356.125 " clip-rule="nonzero"/></clipPath><clipPath id="cd74c2a15d"><path d="M 0.925781 0.125 L 124.769531 0.125 L 124.769531 123.96875 L 0.925781 123.96875 Z M 0.925781 0.125 " clip-rule="nonzero"/></clipPath><clipPath id="c2d61a5bf0"><path d="M 62.847656 0.125 C 28.648438 0.125 0.925781 27.847656 0.925781 62.046875 C 0.925781 96.242188 28.648438 123.96875 62.847656 123.96875 C 97.046875 123.96875 124.769531 96.242188 124.769531 62.046875 C 124.769531 27.847656 97.046875 0.125 62.847656 0.125 Z M 62.847656 0.125 " clip-rule="nonzero"/></clipPath><clipPath id="39096aeaed"><rect x="0" width="125" y="0" height="124"/></clipPath></defs><g clip-path="url(#3361b749da)"><path fill="#000000" d="M 1430.753906 862.046875 C 1459.285156 862.046875 1482.628906 838.703125 1482.628906 810.171875 L 1482.628906 684.734375 C 1482.628906 656.203125 1459.285156 632.859375 1430.753906 632.859375 L 1376.890625 632.859375 C 1348.359375 632.859375 1318.167969 610.535156 1309.761719 583.265625 L 1263.800781 471.679688 C 1250.3125 446.539062 1255.777344 409.464844 1275.941406 389.300781 L 1314.070312 351.171875 C 1334.230469 330.992188 1334.25 297.984375 1314.070312 277.804688 L 1225.378906 189.113281 C 1205.199219 168.933594 1172.1875 168.933594 1152.007812 189.113281 L 1113.882812 227.242188 C 1093.703125 247.421875 1056.609375 252.867188 1031.484375 239.363281 L 919.898438 193.417969 C 892.632812 185.03125 870.324219 154.824219 870.324219 126.292969 L 870.324219 72.429688 C 870.324219 43.894531 846.980469 20.550781 818.449219 20.550781 L 693.011719 20.550781 C 664.480469 20.550781 641.136719 43.894531 641.136719 72.429688 L 641.136719 126.292969 C 641.136719 154.824219 618.8125 185.03125 591.5625 193.417969 L 479.976562 239.363281 C 454.835938 252.867188 417.761719 247.40625 397.597656 227.226562 L 359.46875 189.097656 C 339.289062 168.917969 306.28125 168.917969 286.101562 189.097656 L 197.410156 277.785156 C 177.230469 297.964844 177.230469 330.976562 197.410156 351.15625 L 235.554688 389.285156 C 255.734375 409.464844 261.183594 446.539062 247.695312 471.679688 L 201.734375 583.265625 C 193.347656 610.535156 163.136719 632.839844 134.605469 632.839844 L 80.757812 632.839844 C 52.226562 632.839844 28.882812 656.1875 28.882812 684.71875 L 28.882812 810.171875 C 28.882812 838.703125 52.226562 862.046875 80.757812 862.046875 L 134.605469 862.046875 C 163.136719 862.046875 193.347656 884.351562 201.734375 911.621094 L 247.710938 1023.222656 C 261.21875 1048.347656 255.753906 1085.441406 235.574219 1105.601562 L 197.425781 1143.75 C 177.246094 1163.910156 177.246094 1196.921875 197.425781 1217.101562 L 286.101562 1305.789062 C 306.28125 1325.96875 339.289062 1325.953125 359.46875 1305.789062 L 397.617188 1267.644531 C 417.796875 1247.484375 454.867188 1242.019531 479.996094 1255.523438 L 591.578125 1301.484375 C 618.847656 1309.871094 641.15625 1340.0625 641.15625 1368.613281 L 641.15625 1422.476562 C 641.15625 1451.007812 664.5 1474.351562 693.03125 1474.351562 L 818.464844 1474.351562 C 846.996094 1474.351562 870.34375 1451.007812 870.34375 1422.476562 L 870.34375 1368.59375 C 870.34375 1340.0625 892.648438 1309.871094 919.917969 1301.46875 L 1031.503906 1255.523438 C 1056.628906 1242.019531 1093.71875 1247.464844 1113.882812 1267.644531 L 1152.042969 1305.789062 C 1172.207031 1325.96875 1205.234375 1325.953125 1225.398438 1305.789062 L 1314.085938 1217.101562 C 1334.25 1196.9375 1334.265625 1163.910156 1314.085938 1143.730469 L 1275.957031 1105.601562 C 1255.777344 1085.421875 1250.332031 1048.332031 1263.820312 1023.207031 L 1309.765625 911.621094 C 1318.148438 884.351562 1348.359375 862.046875 1376.910156 862.046875 Z M 755.730469 1046.5 C 590.574219 1046.5 456.683594 912.609375 456.683594 747.453125 C 456.683594 582.28125 590.574219 448.390625 755.730469 448.390625 C 920.886719 448.390625 1054.792969 582.28125 1054.792969 747.453125 C 1054.792969 912.609375 920.886719 1046.5 755.730469 1046.5 Z M 755.730469 1046.5 " fill-opacity="1" fill-rule="nonzero"/></g><g clip-path="url(#e51187dfec)"><g clip-path="url(#ef7537d53d)"><g transform="matrix(1, 0, 0, 1, 385, 356)"><g clip-path="url(#39096aeaed)"><g clip-path="url(#cd74c2a15d)"><g clip-path="url(#c2d61a5bf0)"><path fill="#000000" d="M 0.925781 0.125 L 124.769531 0.125 L 124.769531 123.96875 L 0.925781 123.96875 Z M 0.925781 0.125 " fill-opacity="1" fill-rule="nonzero"/></g></g></g></g></g></g></svg>