<svg xmlns="http://www.w3.org/2000/svg" xmlns:xlink="http://www.w3.org/1999/xlink" width="2000" zoomAndPan="magnify" viewBox="0 0 1500 1499.999933" height="2000" preserveAspectRatio="xMidYMid meet" version="1.0"><defs><clipPath id="070bd1ae90"><path d="M 33.75 45 L 1443.75 45 L 1443.75 1455 L 33.75 1455 Z M 33.75 45 " clip-rule="nonzero"/></clipPath><clipPath id="4904ff2d22"><path d="M 45 45 L 1455 45 L 1455 1455 L 45 1455 Z M 45 45 " clip-rule="nonzero"/></clipPath></defs><g clip-path="url(#070bd1ae90)"><path fill="#000000" d="M 1409.988281 45.039062 C 1407.878906 45.101562 1405.796875 45.363281 1403.738281 45.832031 C 1401.679688 46.296875 1399.6875 46.953125 1397.757812 47.800781 C 1395.824219 48.652344 1393.996094 49.679688 1392.261719 50.882812 C 1390.53125 52.085938 1388.929688 53.445312 1387.460938 54.957031 L 43.707031 1398.710938 C 42.921875 1399.464844 42.179688 1400.253906 41.472656 1401.082031 C 40.765625 1401.90625 40.105469 1402.765625 39.484375 1403.660156 C 38.863281 1404.554688 38.289062 1405.476562 37.761719 1406.425781 C 37.234375 1407.375 36.753906 1408.347656 36.324219 1409.347656 C 35.890625 1410.34375 35.511719 1411.363281 35.179688 1412.398438 C 34.851562 1413.433594 34.574219 1414.484375 34.347656 1415.546875 C 34.121094 1416.609375 33.949219 1417.683594 33.832031 1418.761719 C 33.710938 1419.84375 33.648438 1420.925781 33.636719 1422.015625 C 33.625 1423.101562 33.667969 1424.1875 33.765625 1425.269531 C 33.859375 1426.351562 34.011719 1427.425781 34.214844 1428.496094 C 34.417969 1429.5625 34.675781 1430.617188 34.984375 1431.660156 C 35.292969 1432.703125 35.652344 1433.726562 36.066406 1434.734375 C 36.476562 1435.738281 36.933594 1436.722656 37.445312 1437.683594 C 37.953125 1438.644531 38.507812 1439.578125 39.109375 1440.484375 C 39.710938 1441.390625 40.355469 1442.261719 41.046875 1443.101562 C 41.734375 1443.945312 42.460938 1444.75 43.230469 1445.519531 C 44 1446.285156 44.804688 1447.015625 45.644531 1447.703125 C 46.488281 1448.394531 47.359375 1449.039062 48.265625 1449.640625 C 49.171875 1450.242188 50.105469 1450.796875 51.066406 1451.304688 C 52.027344 1451.8125 53.011719 1452.273438 54.015625 1452.683594 C 55.023438 1453.097656 56.046875 1453.457031 57.089844 1453.765625 C 58.132812 1454.074219 59.1875 1454.332031 60.253906 1454.535156 C 61.324219 1454.738281 62.398438 1454.886719 63.480469 1454.984375 C 64.5625 1455.082031 65.648438 1455.125 66.734375 1455.113281 C 67.824219 1455.101562 68.90625 1455.039062 69.988281 1454.917969 C 71.066406 1454.800781 72.140625 1454.628906 73.203125 1454.402344 C 74.265625 1454.175781 75.316406 1453.898438 76.351562 1453.570312 C 77.386719 1453.238281 78.40625 1452.859375 79.402344 1452.425781 C 80.402344 1451.996094 81.375 1451.515625 82.324219 1450.988281 C 83.273438 1450.460938 84.195312 1449.886719 85.089844 1449.265625 C 85.984375 1448.644531 86.84375 1447.980469 87.667969 1447.277344 C 88.496094 1446.570312 89.285156 1445.828125 90.039062 1445.042969 L 1433.792969 101.289062 C 1434.96875 100.144531 1436.054688 98.917969 1437.046875 97.613281 C 1438.039062 96.304688 1438.929688 94.933594 1439.714844 93.492188 C 1440.503906 92.050781 1441.175781 90.558594 1441.738281 89.015625 C 1442.300781 87.472656 1442.746094 85.898438 1443.070312 84.289062 C 1443.394531 82.679688 1443.597656 81.058594 1443.679688 79.417969 C 1443.761719 77.777344 1443.71875 76.140625 1443.554688 74.507812 C 1443.390625 72.875 1443.105469 71.265625 1442.699219 69.675781 C 1442.292969 68.082031 1441.769531 66.53125 1441.128906 65.019531 C 1440.488281 63.507812 1439.742188 62.054688 1438.882812 60.65625 C 1438.023438 59.257812 1437.066406 57.929688 1436.007812 56.675781 C 1434.949219 55.417969 1433.804688 54.25 1432.570312 53.167969 C 1431.335938 52.085938 1430.03125 51.101562 1428.648438 50.214844 C 1427.265625 49.328125 1425.828125 48.546875 1424.328125 47.878906 C 1422.832031 47.207031 1421.289062 46.65625 1419.707031 46.214844 C 1418.125 45.777344 1416.519531 45.460938 1414.890625 45.261719 C 1413.261719 45.066406 1411.628906 44.988281 1409.988281 45.039062 Z M 1409.988281 45.039062 " fill-opacity="1" fill-rule="nonzero"/></g><g clip-path="url(#4904ff2d22)"><path fill="#000000" d="M 1454.960938 1421.234375 C 1454.898438 1419.128906 1454.632812 1417.046875 1454.167969 1414.988281 C 1453.703125 1412.929688 1453.046875 1410.9375 1452.195312 1409.007812 C 1451.347656 1407.074219 1450.320312 1405.246094 1449.117188 1403.511719 C 1447.914062 1401.78125 1446.554688 1400.179688 1445.042969 1398.710938 L 101.289062 54.957031 C 100.535156 54.171875 99.746094 53.429688 98.917969 52.722656 C 98.09375 52.015625 97.234375 51.355469 96.339844 50.734375 C 95.445312 50.113281 94.523438 49.539062 93.574219 49.011719 C 92.625 48.484375 91.652344 48.003906 90.652344 47.574219 C 89.65625 47.140625 88.636719 46.761719 87.601562 46.429688 C 86.566406 46.101562 85.515625 45.824219 84.453125 45.597656 C 83.390625 45.371094 82.316406 45.199219 81.238281 45.082031 C 80.15625 44.960938 79.074219 44.894531 77.984375 44.886719 C 76.898438 44.875 75.8125 44.917969 74.730469 45.015625 C 73.648438 45.109375 72.574219 45.261719 71.503906 45.464844 C 70.4375 45.667969 69.382812 45.925781 68.339844 46.234375 C 67.296875 46.542969 66.273438 46.902344 65.265625 47.316406 C 64.261719 47.726562 63.277344 48.183594 62.316406 48.695312 C 61.355469 49.203125 60.421875 49.757812 59.515625 50.359375 C 58.609375 50.960938 57.738281 51.605469 56.898438 52.296875 C 56.054688 52.984375 55.25 53.710938 54.480469 54.480469 C 53.714844 55.25 52.984375 56.054688 52.296875 56.894531 C 51.605469 57.738281 50.960938 58.609375 50.359375 59.515625 C 49.757812 60.421875 49.203125 61.355469 48.695312 62.316406 C 48.183594 63.277344 47.726562 64.261719 47.316406 65.265625 C 46.902344 66.273438 46.542969 67.296875 46.234375 68.339844 C 45.925781 69.382812 45.667969 70.4375 45.464844 71.503906 C 45.261719 72.574219 45.109375 73.648438 45.015625 74.730469 C 44.917969 75.8125 44.875 76.898438 44.886719 77.984375 C 44.898438 79.074219 44.960938 80.15625 45.082031 81.238281 C 45.199219 82.316406 45.371094 83.390625 45.597656 84.453125 C 45.824219 85.515625 46.101562 86.566406 46.429688 87.601562 C 46.761719 88.636719 47.140625 89.65625 47.574219 90.652344 C 48.003906 91.652344 48.484375 92.625 49.011719 93.574219 C 49.539062 94.523438 50.113281 95.445312 50.734375 96.339844 C 51.355469 97.234375 52.015625 98.09375 52.722656 98.917969 C 53.429688 99.746094 54.171875 100.535156 54.957031 101.289062 L 1398.710938 1445.042969 C 1399.855469 1446.21875 1401.078125 1447.304688 1402.386719 1448.296875 C 1403.695312 1449.289062 1405.066406 1450.179688 1406.507812 1450.964844 C 1407.949219 1451.753906 1409.441406 1452.425781 1410.984375 1452.988281 C 1412.527344 1453.550781 1414.101562 1453.996094 1415.710938 1454.320312 C 1417.320312 1454.644531 1418.941406 1454.847656 1420.582031 1454.929688 C 1422.222656 1455.011719 1423.859375 1454.96875 1425.492188 1454.804688 C 1427.125 1454.640625 1428.734375 1454.355469 1430.324219 1453.949219 C 1431.914062 1453.542969 1433.46875 1453.019531 1434.976562 1452.378906 C 1436.488281 1451.738281 1437.945312 1450.992188 1439.34375 1450.132812 C 1440.742188 1449.273438 1442.070312 1448.316406 1443.324219 1447.257812 C 1444.582031 1446.199219 1445.75 1445.054688 1446.832031 1443.820312 C 1447.914062 1442.585938 1448.898438 1441.28125 1449.785156 1439.898438 C 1450.671875 1438.515625 1451.449219 1437.078125 1452.121094 1435.578125 C 1452.792969 1434.078125 1453.34375 1432.539062 1453.785156 1430.957031 C 1454.222656 1429.375 1454.539062 1427.769531 1454.738281 1426.140625 C 1454.933594 1424.511719 1455.011719 1422.875 1454.960938 1421.234375 Z M 1454.960938 1421.234375 " fill-opacity="1" fill-rule="nonzero"/></g></svg>