<svg xmlns="http://www.w3.org/2000/svg" xmlns:xlink="http://www.w3.org/1999/xlink" width="500" zoomAndPan="magnify" viewBox="0 0 375 374.999991" height="500" preserveAspectRatio="xMidYMid meet" version="1.0"><defs><clipPath id="458c29137f"><path d="M 5.007812 4.179688 L 370.820312 4.179688 L 370.820312 369.992188 L 5.007812 369.992188 Z M 5.007812 4.179688 " clip-rule="nonzero"/></clipPath><clipPath id="3967829700"><path d="M 187.914062 4.179688 C 86.898438 4.179688 5.007812 86.070312 5.007812 187.085938 C 5.007812 288.101562 86.898438 369.992188 187.914062 369.992188 C 288.929688 369.992188 370.820312 288.101562 370.820312 187.085938 C 370.820312 86.070312 288.929688 4.179688 187.914062 4.179688 Z M 187.914062 4.179688 " clip-rule="nonzero"/></clipPath><clipPath id="27f85cf056"><path d="M 0.0078125 0.179688 L 365.820312 0.179688 L 365.820312 365.992188 L 0.0078125 365.992188 Z M 0.0078125 0.179688 " clip-rule="nonzero"/></clipPath><clipPath id="38a5ce69bd"><path d="M 182.914062 0.179688 C 81.898438 0.179688 0.0078125 82.070312 0.0078125 183.085938 C 0.0078125 284.101562 81.898438 365.992188 182.914062 365.992188 C 283.929688 365.992188 365.820312 284.101562 365.820312 183.085938 C 365.820312 82.070312 283.929688 0.179688 182.914062 0.179688 Z M 182.914062 0.179688 " clip-rule="nonzero"/></clipPath><clipPath id="b0acd24b0b"><rect x="0" width="366" y="0" height="366"/></clipPath><clipPath id="ecd40709d5"><path d="M 5.007812 4.179688 L 370.808594 4.179688 L 370.808594 369.980469 L 5.007812 369.980469 Z M 5.007812 4.179688 " clip-rule="nonzero"/></clipPath><clipPath id="062bc3f575"><path d="M 187.910156 4.179688 C 86.894531 4.179688 5.007812 86.066406 5.007812 187.082031 C 5.007812 288.09375 86.894531 369.980469 187.910156 369.980469 C 288.921875 369.980469 370.808594 288.09375 370.808594 187.082031 C 370.808594 86.066406 288.921875 4.179688 187.910156 4.179688 Z M 187.910156 4.179688 " clip-rule="nonzero"/></clipPath></defs><g clip-path="url(#458c29137f)"><g clip-path="url(#3967829700)"><g transform="matrix(1, 0, 0, 1, 5, 4)"><g clip-path="url(#b0acd24b0b)"><g clip-path="url(#27f85cf056)"><g clip-path="url(#38a5ce69bd)"><path fill="#cb6ce6" d="M 0.0078125 0.179688 L 365.820312 0.179688 L 365.820312 365.992188 L 0.0078125 365.992188 Z M 0.0078125 0.179688 " fill-opacity="1" fill-rule="nonzero"/></g></g></g></g></g></g><g clip-path="url(#ecd40709d5)"><g clip-path="url(#062bc3f575)"><path stroke-linecap="butt" transform="matrix(0.75, 0, 0, 0.75, 5.008282, 4.180429)" fill="none" stroke-linejoin="miter" d="M 243.869181 -0.000989207 C 109.181672 -0.000989207 -0.000626548 109.18131 -0.000626548 243.868818 C -0.000626548 378.551119 109.181672 487.733418 243.869181 487.733418 C 378.551482 487.733418 487.73378 378.551119 487.73378 243.868818 C 487.73378 109.18131 378.551482 -0.000989207 243.869181 -0.000989207 Z M 243.869181 -0.000989207 " stroke="#854696" stroke-width="20" stroke-opacity="1" stroke-miterlimit="4"/></g></g></svg>