<svg xmlns="http://www.w3.org/2000/svg" xmlns:xlink="http://www.w3.org/1999/xlink" width="500" zoomAndPan="magnify" viewBox="0 0 375 374.999991" height="500" preserveAspectRatio="xMidYMid meet" version="1.0"><defs><clipPath id="1022ac1fbb"><path d="M 5.007812 4.179688 L 370.820312 4.179688 L 370.820312 369.992188 L 5.007812 369.992188 Z M 5.007812 4.179688 " clip-rule="nonzero"/></clipPath><clipPath id="189d3ccd7e"><path d="M 187.914062 4.179688 C 86.898438 4.179688 5.007812 86.070312 5.007812 187.085938 C 5.007812 288.101562 86.898438 369.992188 187.914062 369.992188 C 288.929688 369.992188 370.820312 288.101562 370.820312 187.085938 C 370.820312 86.070312 288.929688 4.179688 187.914062 4.179688 Z M 187.914062 4.179688 " clip-rule="nonzero"/></clipPath><clipPath id="f092189797"><path d="M 0.0078125 0.179688 L 365.820312 0.179688 L 365.820312 365.992188 L 0.0078125 365.992188 Z M 0.0078125 0.179688 " clip-rule="nonzero"/></clipPath><clipPath id="97ef098ea7"><path d="M 182.914062 0.179688 C 81.898438 0.179688 0.0078125 82.070312 0.0078125 183.085938 C 0.0078125 284.101562 81.898438 365.992188 182.914062 365.992188 C 283.929688 365.992188 365.820312 284.101562 365.820312 183.085938 C 365.820312 82.070312 283.929688 0.179688 182.914062 0.179688 Z M 182.914062 0.179688 " clip-rule="nonzero"/></clipPath><clipPath id="29f52e0715"><rect x="0" width="366" y="0" height="366"/></clipPath></defs><g clip-path="url(#1022ac1fbb)"><g clip-path="url(#189d3ccd7e)"><g transform="matrix(1, 0, 0, 1, 5, 4)"><g clip-path="url(#29f52e0715)"><g clip-path="url(#f092189797)"><g clip-path="url(#97ef098ea7)"><path fill="#ffd945" d="M 0.0078125 0.179688 L 365.820312 0.179688 L 365.820312 365.992188 L 0.0078125 365.992188 Z M 0.0078125 0.179688 " fill-opacity="1" fill-rule="nonzero"/></g></g></g></g></g></g></svg>